%TF.GenerationSoftware,KiCad,Pcbnew,(6.0.8)*%
%TF.CreationDate,2022-10-14T20:54:24-03:00*%
%TF.ProjectId,Shield,53686965-6c64-42e6-9b69-6361645f7063,rev?*%
%TF.SameCoordinates,Original*%
%TF.FileFunction,Legend,Top*%
%TF.FilePolarity,Positive*%
%FSLAX46Y46*%
G04 Gerber Fmt 4.6, Leading zero omitted, Abs format (unit mm)*
G04 Created by KiCad (PCBNEW (6.0.8)) date 2022-10-14 20:54:24*
%MOMM*%
%LPD*%
G01*
G04 APERTURE LIST*
%ADD10C,0.150000*%
%ADD11C,0.120000*%
G04 APERTURE END LIST*
D10*
%TO.C,R2*%
X175499333Y-92250380D02*
X175166000Y-91774190D01*
X174927904Y-92250380D02*
X174927904Y-91250380D01*
X175308857Y-91250380D01*
X175404095Y-91298000D01*
X175451714Y-91345619D01*
X175499333Y-91440857D01*
X175499333Y-91583714D01*
X175451714Y-91678952D01*
X175404095Y-91726571D01*
X175308857Y-91774190D01*
X174927904Y-91774190D01*
X175880285Y-91345619D02*
X175927904Y-91298000D01*
X176023142Y-91250380D01*
X176261238Y-91250380D01*
X176356476Y-91298000D01*
X176404095Y-91345619D01*
X176451714Y-91440857D01*
X176451714Y-91536095D01*
X176404095Y-91678952D01*
X175832666Y-92250380D01*
X176451714Y-92250380D01*
%TO.C,R1*%
X176211333Y-89182380D02*
X175878000Y-88706190D01*
X175639904Y-89182380D02*
X175639904Y-88182380D01*
X176020857Y-88182380D01*
X176116095Y-88230000D01*
X176163714Y-88277619D01*
X176211333Y-88372857D01*
X176211333Y-88515714D01*
X176163714Y-88610952D01*
X176116095Y-88658571D01*
X176020857Y-88706190D01*
X175639904Y-88706190D01*
X177163714Y-89182380D02*
X176592285Y-89182380D01*
X176878000Y-89182380D02*
X176878000Y-88182380D01*
X176782761Y-88325238D01*
X176687523Y-88420476D01*
X176592285Y-88468095D01*
%TO.C,SensorFlujo1*%
X185857142Y-95610761D02*
X186000000Y-95658380D01*
X186238095Y-95658380D01*
X186333333Y-95610761D01*
X186380952Y-95563142D01*
X186428571Y-95467904D01*
X186428571Y-95372666D01*
X186380952Y-95277428D01*
X186333333Y-95229809D01*
X186238095Y-95182190D01*
X186047619Y-95134571D01*
X185952380Y-95086952D01*
X185904761Y-95039333D01*
X185857142Y-94944095D01*
X185857142Y-94848857D01*
X185904761Y-94753619D01*
X185952380Y-94706000D01*
X186047619Y-94658380D01*
X186285714Y-94658380D01*
X186428571Y-94706000D01*
X187238095Y-95610761D02*
X187142857Y-95658380D01*
X186952380Y-95658380D01*
X186857142Y-95610761D01*
X186809523Y-95515523D01*
X186809523Y-95134571D01*
X186857142Y-95039333D01*
X186952380Y-94991714D01*
X187142857Y-94991714D01*
X187238095Y-95039333D01*
X187285714Y-95134571D01*
X187285714Y-95229809D01*
X186809523Y-95325047D01*
X187714285Y-94991714D02*
X187714285Y-95658380D01*
X187714285Y-95086952D02*
X187761904Y-95039333D01*
X187857142Y-94991714D01*
X188000000Y-94991714D01*
X188095238Y-95039333D01*
X188142857Y-95134571D01*
X188142857Y-95658380D01*
X188571428Y-95610761D02*
X188666666Y-95658380D01*
X188857142Y-95658380D01*
X188952380Y-95610761D01*
X189000000Y-95515523D01*
X189000000Y-95467904D01*
X188952380Y-95372666D01*
X188857142Y-95325047D01*
X188714285Y-95325047D01*
X188619047Y-95277428D01*
X188571428Y-95182190D01*
X188571428Y-95134571D01*
X188619047Y-95039333D01*
X188714285Y-94991714D01*
X188857142Y-94991714D01*
X188952380Y-95039333D01*
X189571428Y-95658380D02*
X189476190Y-95610761D01*
X189428571Y-95563142D01*
X189380952Y-95467904D01*
X189380952Y-95182190D01*
X189428571Y-95086952D01*
X189476190Y-95039333D01*
X189571428Y-94991714D01*
X189714285Y-94991714D01*
X189809523Y-95039333D01*
X189857142Y-95086952D01*
X189904761Y-95182190D01*
X189904761Y-95467904D01*
X189857142Y-95563142D01*
X189809523Y-95610761D01*
X189714285Y-95658380D01*
X189571428Y-95658380D01*
X190333333Y-95658380D02*
X190333333Y-94991714D01*
X190333333Y-95182190D02*
X190380952Y-95086952D01*
X190428571Y-95039333D01*
X190523809Y-94991714D01*
X190619047Y-94991714D01*
X191285714Y-95134571D02*
X190952380Y-95134571D01*
X190952380Y-95658380D02*
X190952380Y-94658380D01*
X191428571Y-94658380D01*
X191952380Y-95658380D02*
X191857142Y-95610761D01*
X191809523Y-95515523D01*
X191809523Y-94658380D01*
X192761904Y-94991714D02*
X192761904Y-95658380D01*
X192333333Y-94991714D02*
X192333333Y-95515523D01*
X192380952Y-95610761D01*
X192476190Y-95658380D01*
X192619047Y-95658380D01*
X192714285Y-95610761D01*
X192761904Y-95563142D01*
X193238095Y-94991714D02*
X193238095Y-95848857D01*
X193190476Y-95944095D01*
X193095238Y-95991714D01*
X193047619Y-95991714D01*
X193238095Y-94658380D02*
X193190476Y-94706000D01*
X193238095Y-94753619D01*
X193285714Y-94706000D01*
X193238095Y-94658380D01*
X193238095Y-94753619D01*
X193857142Y-95658380D02*
X193761904Y-95610761D01*
X193714285Y-95563142D01*
X193666666Y-95467904D01*
X193666666Y-95182190D01*
X193714285Y-95086952D01*
X193761904Y-95039333D01*
X193857142Y-94991714D01*
X194000000Y-94991714D01*
X194095238Y-95039333D01*
X194142857Y-95086952D01*
X194190476Y-95182190D01*
X194190476Y-95467904D01*
X194142857Y-95563142D01*
X194095238Y-95610761D01*
X194000000Y-95658380D01*
X193857142Y-95658380D01*
X195142857Y-95658380D02*
X194571428Y-95658380D01*
X194857142Y-95658380D02*
X194857142Y-94658380D01*
X194761904Y-94801238D01*
X194666666Y-94896476D01*
X194571428Y-94944095D01*
%TO.C,MotorStepper1*%
X168399142Y-109158380D02*
X168399142Y-108158380D01*
X168732476Y-108872666D01*
X169065809Y-108158380D01*
X169065809Y-109158380D01*
X169684857Y-109158380D02*
X169589619Y-109110761D01*
X169542000Y-109063142D01*
X169494380Y-108967904D01*
X169494380Y-108682190D01*
X169542000Y-108586952D01*
X169589619Y-108539333D01*
X169684857Y-108491714D01*
X169827714Y-108491714D01*
X169922952Y-108539333D01*
X169970571Y-108586952D01*
X170018190Y-108682190D01*
X170018190Y-108967904D01*
X169970571Y-109063142D01*
X169922952Y-109110761D01*
X169827714Y-109158380D01*
X169684857Y-109158380D01*
X170303904Y-108491714D02*
X170684857Y-108491714D01*
X170446761Y-108158380D02*
X170446761Y-109015523D01*
X170494380Y-109110761D01*
X170589619Y-109158380D01*
X170684857Y-109158380D01*
X171161047Y-109158380D02*
X171065809Y-109110761D01*
X171018190Y-109063142D01*
X170970571Y-108967904D01*
X170970571Y-108682190D01*
X171018190Y-108586952D01*
X171065809Y-108539333D01*
X171161047Y-108491714D01*
X171303904Y-108491714D01*
X171399142Y-108539333D01*
X171446761Y-108586952D01*
X171494380Y-108682190D01*
X171494380Y-108967904D01*
X171446761Y-109063142D01*
X171399142Y-109110761D01*
X171303904Y-109158380D01*
X171161047Y-109158380D01*
X171922952Y-109158380D02*
X171922952Y-108491714D01*
X171922952Y-108682190D02*
X171970571Y-108586952D01*
X172018190Y-108539333D01*
X172113428Y-108491714D01*
X172208666Y-108491714D01*
X172494380Y-109110761D02*
X172637238Y-109158380D01*
X172875333Y-109158380D01*
X172970571Y-109110761D01*
X173018190Y-109063142D01*
X173065809Y-108967904D01*
X173065809Y-108872666D01*
X173018190Y-108777428D01*
X172970571Y-108729809D01*
X172875333Y-108682190D01*
X172684857Y-108634571D01*
X172589619Y-108586952D01*
X172542000Y-108539333D01*
X172494380Y-108444095D01*
X172494380Y-108348857D01*
X172542000Y-108253619D01*
X172589619Y-108206000D01*
X172684857Y-108158380D01*
X172922952Y-108158380D01*
X173065809Y-108206000D01*
X173351523Y-108491714D02*
X173732476Y-108491714D01*
X173494380Y-108158380D02*
X173494380Y-109015523D01*
X173542000Y-109110761D01*
X173637238Y-109158380D01*
X173732476Y-109158380D01*
X174446761Y-109110761D02*
X174351523Y-109158380D01*
X174161047Y-109158380D01*
X174065809Y-109110761D01*
X174018190Y-109015523D01*
X174018190Y-108634571D01*
X174065809Y-108539333D01*
X174161047Y-108491714D01*
X174351523Y-108491714D01*
X174446761Y-108539333D01*
X174494380Y-108634571D01*
X174494380Y-108729809D01*
X174018190Y-108825047D01*
X174922952Y-108491714D02*
X174922952Y-109491714D01*
X174922952Y-108539333D02*
X175018190Y-108491714D01*
X175208666Y-108491714D01*
X175303904Y-108539333D01*
X175351523Y-108586952D01*
X175399142Y-108682190D01*
X175399142Y-108967904D01*
X175351523Y-109063142D01*
X175303904Y-109110761D01*
X175208666Y-109158380D01*
X175018190Y-109158380D01*
X174922952Y-109110761D01*
X175827714Y-108491714D02*
X175827714Y-109491714D01*
X175827714Y-108539333D02*
X175922952Y-108491714D01*
X176113428Y-108491714D01*
X176208666Y-108539333D01*
X176256285Y-108586952D01*
X176303904Y-108682190D01*
X176303904Y-108967904D01*
X176256285Y-109063142D01*
X176208666Y-109110761D01*
X176113428Y-109158380D01*
X175922952Y-109158380D01*
X175827714Y-109110761D01*
X177113428Y-109110761D02*
X177018190Y-109158380D01*
X176827714Y-109158380D01*
X176732476Y-109110761D01*
X176684857Y-109015523D01*
X176684857Y-108634571D01*
X176732476Y-108539333D01*
X176827714Y-108491714D01*
X177018190Y-108491714D01*
X177113428Y-108539333D01*
X177161047Y-108634571D01*
X177161047Y-108729809D01*
X176684857Y-108825047D01*
X177589619Y-109158380D02*
X177589619Y-108491714D01*
X177589619Y-108682190D02*
X177637238Y-108586952D01*
X177684857Y-108539333D01*
X177780095Y-108491714D01*
X177875333Y-108491714D01*
X178732476Y-109158380D02*
X178161047Y-109158380D01*
X178446761Y-109158380D02*
X178446761Y-108158380D01*
X178351523Y-108301238D01*
X178256285Y-108396476D01*
X178161047Y-108444095D01*
%TO.C,SensorPresion1*%
X177792761Y-91038761D02*
X177935619Y-91086380D01*
X178173714Y-91086380D01*
X178268952Y-91038761D01*
X178316571Y-90991142D01*
X178364190Y-90895904D01*
X178364190Y-90800666D01*
X178316571Y-90705428D01*
X178268952Y-90657809D01*
X178173714Y-90610190D01*
X177983238Y-90562571D01*
X177888000Y-90514952D01*
X177840380Y-90467333D01*
X177792761Y-90372095D01*
X177792761Y-90276857D01*
X177840380Y-90181619D01*
X177888000Y-90134000D01*
X177983238Y-90086380D01*
X178221333Y-90086380D01*
X178364190Y-90134000D01*
X179173714Y-91038761D02*
X179078476Y-91086380D01*
X178888000Y-91086380D01*
X178792761Y-91038761D01*
X178745142Y-90943523D01*
X178745142Y-90562571D01*
X178792761Y-90467333D01*
X178888000Y-90419714D01*
X179078476Y-90419714D01*
X179173714Y-90467333D01*
X179221333Y-90562571D01*
X179221333Y-90657809D01*
X178745142Y-90753047D01*
X179649904Y-90419714D02*
X179649904Y-91086380D01*
X179649904Y-90514952D02*
X179697523Y-90467333D01*
X179792761Y-90419714D01*
X179935619Y-90419714D01*
X180030857Y-90467333D01*
X180078476Y-90562571D01*
X180078476Y-91086380D01*
X180507047Y-91038761D02*
X180602285Y-91086380D01*
X180792761Y-91086380D01*
X180888000Y-91038761D01*
X180935619Y-90943523D01*
X180935619Y-90895904D01*
X180888000Y-90800666D01*
X180792761Y-90753047D01*
X180649904Y-90753047D01*
X180554666Y-90705428D01*
X180507047Y-90610190D01*
X180507047Y-90562571D01*
X180554666Y-90467333D01*
X180649904Y-90419714D01*
X180792761Y-90419714D01*
X180888000Y-90467333D01*
X181507047Y-91086380D02*
X181411809Y-91038761D01*
X181364190Y-90991142D01*
X181316571Y-90895904D01*
X181316571Y-90610190D01*
X181364190Y-90514952D01*
X181411809Y-90467333D01*
X181507047Y-90419714D01*
X181649904Y-90419714D01*
X181745142Y-90467333D01*
X181792761Y-90514952D01*
X181840380Y-90610190D01*
X181840380Y-90895904D01*
X181792761Y-90991142D01*
X181745142Y-91038761D01*
X181649904Y-91086380D01*
X181507047Y-91086380D01*
X182268952Y-91086380D02*
X182268952Y-90419714D01*
X182268952Y-90610190D02*
X182316571Y-90514952D01*
X182364190Y-90467333D01*
X182459428Y-90419714D01*
X182554666Y-90419714D01*
X182888000Y-91086380D02*
X182888000Y-90086380D01*
X183268952Y-90086380D01*
X183364190Y-90134000D01*
X183411809Y-90181619D01*
X183459428Y-90276857D01*
X183459428Y-90419714D01*
X183411809Y-90514952D01*
X183364190Y-90562571D01*
X183268952Y-90610190D01*
X182888000Y-90610190D01*
X183888000Y-91086380D02*
X183888000Y-90419714D01*
X183888000Y-90610190D02*
X183935619Y-90514952D01*
X183983238Y-90467333D01*
X184078476Y-90419714D01*
X184173714Y-90419714D01*
X184888000Y-91038761D02*
X184792761Y-91086380D01*
X184602285Y-91086380D01*
X184507047Y-91038761D01*
X184459428Y-90943523D01*
X184459428Y-90562571D01*
X184507047Y-90467333D01*
X184602285Y-90419714D01*
X184792761Y-90419714D01*
X184888000Y-90467333D01*
X184935619Y-90562571D01*
X184935619Y-90657809D01*
X184459428Y-90753047D01*
X185316571Y-91038761D02*
X185411809Y-91086380D01*
X185602285Y-91086380D01*
X185697523Y-91038761D01*
X185745142Y-90943523D01*
X185745142Y-90895904D01*
X185697523Y-90800666D01*
X185602285Y-90753047D01*
X185459428Y-90753047D01*
X185364190Y-90705428D01*
X185316571Y-90610190D01*
X185316571Y-90562571D01*
X185364190Y-90467333D01*
X185459428Y-90419714D01*
X185602285Y-90419714D01*
X185697523Y-90467333D01*
X186173714Y-91086380D02*
X186173714Y-90419714D01*
X186173714Y-90086380D02*
X186126095Y-90134000D01*
X186173714Y-90181619D01*
X186221333Y-90134000D01*
X186173714Y-90086380D01*
X186173714Y-90181619D01*
X186792761Y-91086380D02*
X186697523Y-91038761D01*
X186649904Y-90991142D01*
X186602285Y-90895904D01*
X186602285Y-90610190D01*
X186649904Y-90514952D01*
X186697523Y-90467333D01*
X186792761Y-90419714D01*
X186935619Y-90419714D01*
X187030857Y-90467333D01*
X187078476Y-90514952D01*
X187126095Y-90610190D01*
X187126095Y-90895904D01*
X187078476Y-90991142D01*
X187030857Y-91038761D01*
X186935619Y-91086380D01*
X186792761Y-91086380D01*
X187554666Y-90419714D02*
X187554666Y-91086380D01*
X187554666Y-90514952D02*
X187602285Y-90467333D01*
X187697523Y-90419714D01*
X187840380Y-90419714D01*
X187935619Y-90467333D01*
X187983238Y-90562571D01*
X187983238Y-91086380D01*
X188983238Y-91086380D02*
X188411809Y-91086380D01*
X188697523Y-91086380D02*
X188697523Y-90086380D01*
X188602285Y-90229238D01*
X188507047Y-90324476D01*
X188411809Y-90372095D01*
%TO.C,SensorPresion2*%
X168409761Y-91038761D02*
X168552619Y-91086380D01*
X168790714Y-91086380D01*
X168885952Y-91038761D01*
X168933571Y-90991142D01*
X168981190Y-90895904D01*
X168981190Y-90800666D01*
X168933571Y-90705428D01*
X168885952Y-90657809D01*
X168790714Y-90610190D01*
X168600238Y-90562571D01*
X168505000Y-90514952D01*
X168457380Y-90467333D01*
X168409761Y-90372095D01*
X168409761Y-90276857D01*
X168457380Y-90181619D01*
X168505000Y-90134000D01*
X168600238Y-90086380D01*
X168838333Y-90086380D01*
X168981190Y-90134000D01*
X169790714Y-91038761D02*
X169695476Y-91086380D01*
X169505000Y-91086380D01*
X169409761Y-91038761D01*
X169362142Y-90943523D01*
X169362142Y-90562571D01*
X169409761Y-90467333D01*
X169505000Y-90419714D01*
X169695476Y-90419714D01*
X169790714Y-90467333D01*
X169838333Y-90562571D01*
X169838333Y-90657809D01*
X169362142Y-90753047D01*
X170266904Y-90419714D02*
X170266904Y-91086380D01*
X170266904Y-90514952D02*
X170314523Y-90467333D01*
X170409761Y-90419714D01*
X170552619Y-90419714D01*
X170647857Y-90467333D01*
X170695476Y-90562571D01*
X170695476Y-91086380D01*
X171124047Y-91038761D02*
X171219285Y-91086380D01*
X171409761Y-91086380D01*
X171505000Y-91038761D01*
X171552619Y-90943523D01*
X171552619Y-90895904D01*
X171505000Y-90800666D01*
X171409761Y-90753047D01*
X171266904Y-90753047D01*
X171171666Y-90705428D01*
X171124047Y-90610190D01*
X171124047Y-90562571D01*
X171171666Y-90467333D01*
X171266904Y-90419714D01*
X171409761Y-90419714D01*
X171505000Y-90467333D01*
X172124047Y-91086380D02*
X172028809Y-91038761D01*
X171981190Y-90991142D01*
X171933571Y-90895904D01*
X171933571Y-90610190D01*
X171981190Y-90514952D01*
X172028809Y-90467333D01*
X172124047Y-90419714D01*
X172266904Y-90419714D01*
X172362142Y-90467333D01*
X172409761Y-90514952D01*
X172457380Y-90610190D01*
X172457380Y-90895904D01*
X172409761Y-90991142D01*
X172362142Y-91038761D01*
X172266904Y-91086380D01*
X172124047Y-91086380D01*
X172885952Y-91086380D02*
X172885952Y-90419714D01*
X172885952Y-90610190D02*
X172933571Y-90514952D01*
X172981190Y-90467333D01*
X173076428Y-90419714D01*
X173171666Y-90419714D01*
X173505000Y-91086380D02*
X173505000Y-90086380D01*
X173885952Y-90086380D01*
X173981190Y-90134000D01*
X174028809Y-90181619D01*
X174076428Y-90276857D01*
X174076428Y-90419714D01*
X174028809Y-90514952D01*
X173981190Y-90562571D01*
X173885952Y-90610190D01*
X173505000Y-90610190D01*
X174505000Y-91086380D02*
X174505000Y-90419714D01*
X174505000Y-90610190D02*
X174552619Y-90514952D01*
X174600238Y-90467333D01*
X174695476Y-90419714D01*
X174790714Y-90419714D01*
X175505000Y-91038761D02*
X175409761Y-91086380D01*
X175219285Y-91086380D01*
X175124047Y-91038761D01*
X175076428Y-90943523D01*
X175076428Y-90562571D01*
X175124047Y-90467333D01*
X175219285Y-90419714D01*
X175409761Y-90419714D01*
X175505000Y-90467333D01*
X175552619Y-90562571D01*
X175552619Y-90657809D01*
X175076428Y-90753047D01*
X175933571Y-91038761D02*
X176028809Y-91086380D01*
X176219285Y-91086380D01*
X176314523Y-91038761D01*
X176362142Y-90943523D01*
X176362142Y-90895904D01*
X176314523Y-90800666D01*
X176219285Y-90753047D01*
X176076428Y-90753047D01*
X175981190Y-90705428D01*
X175933571Y-90610190D01*
X175933571Y-90562571D01*
X175981190Y-90467333D01*
X176076428Y-90419714D01*
X176219285Y-90419714D01*
X176314523Y-90467333D01*
X176790714Y-91086380D02*
X176790714Y-90419714D01*
X176790714Y-90086380D02*
X176743095Y-90134000D01*
X176790714Y-90181619D01*
X176838333Y-90134000D01*
X176790714Y-90086380D01*
X176790714Y-90181619D01*
X177409761Y-91086380D02*
X177314523Y-91038761D01*
X177266904Y-90991142D01*
X177219285Y-90895904D01*
X177219285Y-90610190D01*
X177266904Y-90514952D01*
X177314523Y-90467333D01*
X177409761Y-90419714D01*
X177552619Y-90419714D01*
X177647857Y-90467333D01*
X177695476Y-90514952D01*
X177743095Y-90610190D01*
X177743095Y-90895904D01*
X177695476Y-90991142D01*
X177647857Y-91038761D01*
X177552619Y-91086380D01*
X177409761Y-91086380D01*
X178171666Y-90419714D02*
X178171666Y-91086380D01*
X178171666Y-90514952D02*
X178219285Y-90467333D01*
X178314523Y-90419714D01*
X178457380Y-90419714D01*
X178552619Y-90467333D01*
X178600238Y-90562571D01*
X178600238Y-91086380D01*
X179028809Y-90181619D02*
X179076428Y-90134000D01*
X179171666Y-90086380D01*
X179409761Y-90086380D01*
X179505000Y-90134000D01*
X179552619Y-90181619D01*
X179600238Y-90276857D01*
X179600238Y-90372095D01*
X179552619Y-90514952D01*
X178981190Y-91086380D01*
X179600238Y-91086380D01*
%TO.C,A2*%
X185332666Y-118072285D02*
X185332666Y-117596095D01*
X185618380Y-118167523D02*
X184618380Y-117834190D01*
X185618380Y-117500857D01*
X184713619Y-117215142D02*
X184666000Y-117167523D01*
X184618380Y-117072285D01*
X184618380Y-116834190D01*
X184666000Y-116738952D01*
X184713619Y-116691333D01*
X184808857Y-116643714D01*
X184904095Y-116643714D01*
X185046952Y-116691333D01*
X185618380Y-117262761D01*
X185618380Y-116643714D01*
%TO.C,C1*%
X160966682Y-99755142D02*
X160919063Y-99802761D01*
X160776206Y-99850380D01*
X160680968Y-99850380D01*
X160538110Y-99802761D01*
X160442872Y-99707523D01*
X160395253Y-99612285D01*
X160347634Y-99421809D01*
X160347634Y-99278952D01*
X160395253Y-99088476D01*
X160442872Y-98993238D01*
X160538110Y-98898000D01*
X160680968Y-98850380D01*
X160776206Y-98850380D01*
X160919063Y-98898000D01*
X160966682Y-98945619D01*
X161919063Y-99850380D02*
X161347634Y-99850380D01*
X161633349Y-99850380D02*
X161633349Y-98850380D01*
X161538110Y-98993238D01*
X161442872Y-99088476D01*
X161347634Y-99136095D01*
%TO.C,A1*%
X154935714Y-79616666D02*
X155411904Y-79616666D01*
X154840476Y-79902380D02*
X155173809Y-78902380D01*
X155507142Y-79902380D01*
X156364285Y-79902380D02*
X155792857Y-79902380D01*
X156078571Y-79902380D02*
X156078571Y-78902380D01*
X155983333Y-79045238D01*
X155888095Y-79140476D01*
X155792857Y-79188095D01*
D11*
%TO.C,R2*%
X182246000Y-89428000D02*
X178936000Y-89428000D01*
X178936000Y-90798000D02*
X178936000Y-88058000D01*
X178936000Y-88058000D02*
X172396000Y-88058000D01*
X172396000Y-90798000D02*
X178936000Y-90798000D01*
X169086000Y-89428000D02*
X172396000Y-89428000D01*
X172396000Y-88058000D02*
X172396000Y-90798000D01*
%TO.C,R1*%
X173108000Y-84990000D02*
X173108000Y-87730000D01*
X169798000Y-86360000D02*
X173108000Y-86360000D01*
X173108000Y-87730000D02*
X179648000Y-87730000D01*
X179648000Y-84990000D02*
X173108000Y-84990000D01*
X179648000Y-87730000D02*
X179648000Y-84990000D01*
X182958000Y-86360000D02*
X179648000Y-86360000D01*
%TO.C,SensorFlujo1*%
X191830000Y-98806000D02*
X191830000Y-111566000D01*
X189170000Y-98806000D02*
X191830000Y-98806000D01*
X189170000Y-97536000D02*
X189170000Y-96206000D01*
X189170000Y-111566000D02*
X191830000Y-111566000D01*
X189170000Y-98806000D02*
X189170000Y-111566000D01*
X189170000Y-96206000D02*
X190500000Y-96206000D01*
%TO.C,MotorStepper1*%
X167232000Y-107616000D02*
X179852000Y-107616000D01*
X169042000Y-107606000D02*
X169042000Y-106856000D01*
X169042000Y-106856000D02*
X167242000Y-106856000D01*
X178042000Y-106856000D02*
X178042000Y-107606000D01*
X179092000Y-105356000D02*
X179092000Y-102406000D01*
X179852000Y-107616000D02*
X179852000Y-101646000D01*
X178892000Y-107906000D02*
X180142000Y-107906000D01*
X167232000Y-101646000D02*
X167232000Y-107616000D01*
X180142000Y-107906000D02*
X180142000Y-106656000D01*
X170542000Y-107606000D02*
X176542000Y-107606000D01*
X179842000Y-106856000D02*
X178042000Y-106856000D01*
X178042000Y-107606000D02*
X179842000Y-107606000D01*
X170542000Y-106856000D02*
X170542000Y-107606000D01*
X179842000Y-105356000D02*
X179092000Y-105356000D01*
X167992000Y-102406000D02*
X173542000Y-102406000D01*
X179852000Y-101646000D02*
X167232000Y-101646000D01*
X176542000Y-106856000D02*
X170542000Y-106856000D01*
X167242000Y-105356000D02*
X167992000Y-105356000D01*
X176542000Y-107606000D02*
X176542000Y-106856000D01*
X167992000Y-105356000D02*
X167992000Y-102406000D01*
X167242000Y-107606000D02*
X169042000Y-107606000D01*
X167242000Y-106856000D02*
X167242000Y-107606000D01*
X179842000Y-107606000D02*
X179842000Y-106856000D01*
X179092000Y-102406000D02*
X173542000Y-102406000D01*
%TO.C,SensorPresion1*%
X182058000Y-94234000D02*
X184718000Y-94234000D01*
X182058000Y-91634000D02*
X183388000Y-91634000D01*
X184718000Y-94234000D02*
X184718000Y-99374000D01*
X182058000Y-92964000D02*
X182058000Y-91634000D01*
X182058000Y-94234000D02*
X182058000Y-99374000D01*
X182058000Y-99374000D02*
X184718000Y-99374000D01*
%TO.C,SensorPresion2*%
X172675000Y-92964000D02*
X172675000Y-91634000D01*
X172675000Y-99374000D02*
X175335000Y-99374000D01*
X175335000Y-94234000D02*
X175335000Y-99374000D01*
X172675000Y-94234000D02*
X175335000Y-94234000D01*
X172675000Y-94234000D02*
X172675000Y-99374000D01*
X172675000Y-91634000D02*
X174005000Y-91634000D01*
%TO.C,A2*%
X163446000Y-125108000D02*
X184026000Y-125108000D01*
X184026000Y-125108000D02*
X184026000Y-112278000D01*
X184026000Y-109608000D02*
X182626000Y-109608000D01*
X181356000Y-112278000D02*
X163446000Y-112278000D01*
X163446000Y-109608000D02*
X163446000Y-125108000D01*
X181356000Y-112278000D02*
X181356000Y-109608000D01*
X181356000Y-109608000D02*
X163446000Y-109608000D01*
X184026000Y-111008000D02*
X184026000Y-109608000D01*
X184026000Y-112278000D02*
X181356000Y-112278000D01*
X184026000Y-122438000D02*
X163446000Y-122438000D01*
%TO.C,C1*%
X163374349Y-105688000D02*
X163374349Y-108066000D01*
X162374349Y-105688000D02*
X162374349Y-108537000D01*
X161293349Y-100571000D02*
X161293349Y-108725000D01*
X156723651Y-102333000D02*
X157523651Y-102333000D01*
X162334349Y-105688000D02*
X162334349Y-108550000D01*
X165054349Y-103419000D02*
X165054349Y-105877000D01*
X162214349Y-105688000D02*
X162214349Y-108584000D01*
X163534349Y-101339000D02*
X163534349Y-107957000D01*
X162854349Y-100944000D02*
X162854349Y-103608000D01*
X161173349Y-100568000D02*
X161173349Y-108728000D01*
X161573349Y-100591000D02*
X161573349Y-103608000D01*
X165014349Y-103302000D02*
X165014349Y-105994000D01*
X161493349Y-105688000D02*
X161493349Y-108713000D01*
X161253349Y-100569000D02*
X161253349Y-108727000D01*
X164054349Y-101781000D02*
X164054349Y-107515000D01*
X162054349Y-100672000D02*
X162054349Y-103608000D01*
X163894349Y-101629000D02*
X163894349Y-107667000D01*
X164134349Y-101864000D02*
X164134349Y-107432000D01*
X162774349Y-100908000D02*
X162774349Y-103608000D01*
X161773349Y-105688000D02*
X161773349Y-108678000D01*
X162494349Y-105688000D02*
X162494349Y-108498000D01*
X163734349Y-101492000D02*
X163734349Y-107804000D01*
X163614349Y-101398000D02*
X163614349Y-107898000D01*
X162014349Y-105688000D02*
X162014349Y-108633000D01*
X164934349Y-103096000D02*
X164934349Y-106200000D01*
X164334349Y-102092000D02*
X164334349Y-107204000D01*
X162654349Y-100858000D02*
X162654349Y-103608000D01*
X162534349Y-100813000D02*
X162534349Y-103608000D01*
X161733349Y-100611000D02*
X161733349Y-103608000D01*
X164374349Y-102143000D02*
X164374349Y-107153000D01*
X161453349Y-100580000D02*
X161453349Y-103608000D01*
X163134349Y-101086000D02*
X163134349Y-103608000D01*
X162774349Y-105688000D02*
X162774349Y-108388000D01*
X161653349Y-100600000D02*
X161653349Y-103608000D01*
X162214349Y-100712000D02*
X162214349Y-103608000D01*
X163254349Y-101155000D02*
X163254349Y-103608000D01*
X161573349Y-105688000D02*
X161573349Y-108705000D01*
X163774349Y-101524000D02*
X163774349Y-107772000D01*
X163254349Y-105688000D02*
X163254349Y-108141000D01*
X162894349Y-100962000D02*
X162894349Y-103608000D01*
X163574349Y-101368000D02*
X163574349Y-107928000D01*
X163334349Y-105688000D02*
X163334349Y-108092000D01*
X162734349Y-100891000D02*
X162734349Y-103608000D01*
X161653349Y-105688000D02*
X161653349Y-108696000D01*
X165214349Y-104115000D02*
X165214349Y-105181000D01*
X161974349Y-105688000D02*
X161974349Y-108642000D01*
X161854349Y-105688000D02*
X161854349Y-108665000D01*
X164534349Y-102361000D02*
X164534349Y-106935000D01*
X161533349Y-105688000D02*
X161533349Y-108709000D01*
X161413349Y-105688000D02*
X161413349Y-108719000D01*
X164974349Y-103195000D02*
X164974349Y-106101000D01*
X164894349Y-103003000D02*
X164894349Y-106293000D01*
X161213349Y-100568000D02*
X161213349Y-108728000D01*
X163014349Y-105688000D02*
X163014349Y-108275000D01*
X163174349Y-105688000D02*
X163174349Y-108188000D01*
X162134349Y-105688000D02*
X162134349Y-108605000D01*
X164254349Y-101997000D02*
X164254349Y-107299000D01*
X164774349Y-102758000D02*
X164774349Y-106538000D01*
X164854349Y-102917000D02*
X164854349Y-106379000D01*
X162254349Y-100723000D02*
X162254349Y-103608000D01*
X165174349Y-103880000D02*
X165174349Y-105416000D01*
X161934349Y-100646000D02*
X161934349Y-103608000D01*
X162174349Y-105688000D02*
X162174349Y-108595000D01*
X163334349Y-101204000D02*
X163334349Y-103608000D01*
X162694349Y-100874000D02*
X162694349Y-103608000D01*
X162854349Y-105688000D02*
X162854349Y-108352000D01*
X164014349Y-101741000D02*
X164014349Y-107555000D01*
X164454349Y-102248000D02*
X164454349Y-107048000D01*
X162494349Y-100798000D02*
X162494349Y-103608000D01*
X161373349Y-100574000D02*
X161373349Y-103608000D01*
X162374349Y-100759000D02*
X162374349Y-103608000D01*
X163094349Y-101064000D02*
X163094349Y-103608000D01*
X163814349Y-101558000D02*
X163814349Y-107738000D01*
X163454349Y-101283000D02*
X163454349Y-108013000D01*
X162454349Y-100785000D02*
X162454349Y-103608000D01*
X162974349Y-105688000D02*
X162974349Y-108295000D01*
X163214349Y-105688000D02*
X163214349Y-108165000D01*
X161693349Y-100606000D02*
X161693349Y-103608000D01*
X162414349Y-105688000D02*
X162414349Y-108525000D01*
X163174349Y-101108000D02*
X163174349Y-103608000D01*
X162814349Y-105688000D02*
X162814349Y-108370000D01*
X163014349Y-101021000D02*
X163014349Y-103608000D01*
X161693349Y-105688000D02*
X161693349Y-108690000D01*
X161613349Y-105688000D02*
X161613349Y-108700000D01*
X162654349Y-105688000D02*
X162654349Y-108438000D01*
X161934349Y-105688000D02*
X161934349Y-108650000D01*
X161413349Y-100577000D02*
X161413349Y-103608000D01*
X161133349Y-100568000D02*
X161133349Y-108728000D01*
X162814349Y-100926000D02*
X162814349Y-103608000D01*
X165094349Y-103550000D02*
X165094349Y-105746000D01*
X161894349Y-100638000D02*
X161894349Y-103608000D01*
X157123651Y-101933000D02*
X157123651Y-102733000D01*
X164734349Y-102684000D02*
X164734349Y-106612000D01*
X162574349Y-105688000D02*
X162574349Y-108469000D01*
X161733349Y-105688000D02*
X161733349Y-108685000D01*
X161533349Y-100587000D02*
X161533349Y-103608000D01*
X162294349Y-100734000D02*
X162294349Y-103608000D01*
X163054349Y-101042000D02*
X163054349Y-103608000D01*
X164654349Y-102546000D02*
X164654349Y-106750000D01*
X164214349Y-101951000D02*
X164214349Y-107345000D01*
X164574349Y-102420000D02*
X164574349Y-106876000D01*
X165134349Y-103700000D02*
X165134349Y-105596000D01*
X161854349Y-100631000D02*
X161854349Y-103608000D01*
X162094349Y-100681000D02*
X162094349Y-103608000D01*
X164814349Y-102835000D02*
X164814349Y-106461000D01*
X164294349Y-102044000D02*
X164294349Y-107252000D01*
X162734349Y-105688000D02*
X162734349Y-108405000D01*
X162694349Y-105688000D02*
X162694349Y-108422000D01*
X161453349Y-105688000D02*
X161453349Y-108716000D01*
X164414349Y-102194000D02*
X164414349Y-107102000D01*
X164094349Y-101822000D02*
X164094349Y-107474000D01*
X161974349Y-100654000D02*
X161974349Y-103608000D01*
X162014349Y-100663000D02*
X162014349Y-103608000D01*
X164614349Y-102482000D02*
X164614349Y-106814000D01*
X163694349Y-101459000D02*
X163694349Y-107837000D01*
X163414349Y-105688000D02*
X163414349Y-108040000D01*
X162454349Y-105688000D02*
X162454349Y-108511000D01*
X161894349Y-105688000D02*
X161894349Y-108658000D01*
X164694349Y-102614000D02*
X164694349Y-106682000D01*
X163134349Y-105688000D02*
X163134349Y-108210000D01*
X163414349Y-101256000D02*
X163414349Y-103608000D01*
X162414349Y-100771000D02*
X162414349Y-103608000D01*
X163854349Y-101593000D02*
X163854349Y-107703000D01*
X162334349Y-100746000D02*
X162334349Y-103608000D01*
X163934349Y-101665000D02*
X163934349Y-107631000D01*
X162254349Y-105688000D02*
X162254349Y-108573000D01*
X162574349Y-100827000D02*
X162574349Y-103608000D01*
X164174349Y-101907000D02*
X164174349Y-107389000D01*
X163654349Y-101428000D02*
X163654349Y-107868000D01*
X162054349Y-105688000D02*
X162054349Y-108624000D01*
X162534349Y-105688000D02*
X162534349Y-108483000D01*
X162894349Y-105688000D02*
X162894349Y-108334000D01*
X162134349Y-100691000D02*
X162134349Y-103608000D01*
X161333349Y-100572000D02*
X161333349Y-108724000D01*
X161373349Y-105688000D02*
X161373349Y-108722000D01*
X164494349Y-102303000D02*
X164494349Y-106993000D01*
X163294349Y-105688000D02*
X163294349Y-108117000D01*
X162974349Y-101001000D02*
X162974349Y-103608000D01*
X161613349Y-100596000D02*
X161613349Y-103608000D01*
X163054349Y-105688000D02*
X163054349Y-108254000D01*
X163494349Y-101310000D02*
X163494349Y-107986000D01*
X161493349Y-100583000D02*
X161493349Y-103608000D01*
X162174349Y-100701000D02*
X162174349Y-103608000D01*
X163974349Y-101703000D02*
X163974349Y-107593000D01*
X163094349Y-105688000D02*
X163094349Y-108232000D01*
X161773349Y-100618000D02*
X161773349Y-103608000D01*
X163214349Y-101131000D02*
X163214349Y-103608000D01*
X162934349Y-105688000D02*
X162934349Y-108314000D01*
X162294349Y-105688000D02*
X162294349Y-108562000D01*
X162934349Y-100982000D02*
X162934349Y-103608000D01*
X163294349Y-101179000D02*
X163294349Y-103608000D01*
X162614349Y-100843000D02*
X162614349Y-103608000D01*
X161813349Y-100624000D02*
X161813349Y-103608000D01*
X161813349Y-105688000D02*
X161813349Y-108672000D01*
X162614349Y-105688000D02*
X162614349Y-108453000D01*
X163374349Y-101230000D02*
X163374349Y-103608000D01*
X162094349Y-105688000D02*
X162094349Y-108615000D01*
X165253349Y-104648000D02*
G75*
G03*
X165253349Y-104648000I-4120000J0D01*
G01*
%TO.C,A1*%
X192610000Y-132540000D02*
X192610000Y-121110000D01*
X124410000Y-92910000D02*
X126310000Y-92910000D01*
X119960000Y-124660000D02*
X126310000Y-124660000D01*
X126310000Y-92910000D02*
X126310000Y-112980000D01*
X192610000Y-121110000D02*
X195150000Y-118570000D01*
X119960000Y-112980000D02*
X119960000Y-124660000D01*
X126310000Y-134190000D02*
X190960000Y-134190000D01*
X190960000Y-134190000D02*
X192610000Y-132540000D01*
X195150000Y-85800000D02*
X192610000Y-83260000D01*
X126310000Y-124660000D02*
X126310000Y-134190000D01*
X124410000Y-83770000D02*
X124410000Y-92910000D01*
X192610000Y-80590000D02*
X126310000Y-80590000D01*
X195150000Y-118570000D02*
X195150000Y-85800000D01*
X126310000Y-80590000D02*
X126310000Y-83770000D01*
X192610000Y-83260000D02*
X192610000Y-80590000D01*
X126310000Y-83770000D02*
X124410000Y-83770000D01*
X126310000Y-112980000D02*
X119960000Y-112980000D01*
%TD*%
M02*
