%TF.GenerationSoftware,KiCad,Pcbnew,(6.0.8)*%
%TF.CreationDate,2022-10-14T20:54:24-03:00*%
%TF.ProjectId,Shield,53686965-6c64-42e6-9b69-6361645f7063,rev?*%
%TF.SameCoordinates,Original*%
%TF.FileFunction,Copper,L2,Bot*%
%TF.FilePolarity,Positive*%
%FSLAX46Y46*%
G04 Gerber Fmt 4.6, Leading zero omitted, Abs format (unit mm)*
G04 Created by KiCad (PCBNEW (6.0.8)) date 2022-10-14 20:54:24*
%MOMM*%
%LPD*%
G01*
G04 APERTURE LIST*
G04 Aperture macros list*
%AMRoundRect*
0 Rectangle with rounded corners*
0 $1 Rounding radius*
0 $2 $3 $4 $5 $6 $7 $8 $9 X,Y pos of 4 corners*
0 Add a 4 corners polygon primitive as box body*
4,1,4,$2,$3,$4,$5,$6,$7,$8,$9,$2,$3,0*
0 Add four circle primitives for the rounded corners*
1,1,$1+$1,$2,$3*
1,1,$1+$1,$4,$5*
1,1,$1+$1,$6,$7*
1,1,$1+$1,$8,$9*
0 Add four rect primitives between the rounded corners*
20,1,$1+$1,$2,$3,$4,$5,0*
20,1,$1+$1,$4,$5,$6,$7,0*
20,1,$1+$1,$6,$7,$8,$9,0*
20,1,$1+$1,$8,$9,$2,$3,0*%
G04 Aperture macros list end*
%TA.AperFunction,ComponentPad*%
%ADD10O,1.600000X1.600000*%
%TD*%
%TA.AperFunction,ComponentPad*%
%ADD11C,1.600000*%
%TD*%
%TA.AperFunction,ComponentPad*%
%ADD12R,1.700000X1.700000*%
%TD*%
%TA.AperFunction,ComponentPad*%
%ADD13O,1.700000X1.700000*%
%TD*%
%TA.AperFunction,ComponentPad*%
%ADD14RoundRect,0.250000X0.600000X0.725000X-0.600000X0.725000X-0.600000X-0.725000X0.600000X-0.725000X0*%
%TD*%
%TA.AperFunction,ComponentPad*%
%ADD15O,1.700000X1.950000*%
%TD*%
%TA.AperFunction,ComponentPad*%
%ADD16R,1.600000X1.600000*%
%TD*%
%TA.AperFunction,Conductor*%
%ADD17C,1.000000*%
%TD*%
G04 APERTURE END LIST*
D10*
%TO.P,R2,2*%
%TO.N,+5V*%
X164592000Y-89408000D03*
D11*
%TO.P,R2,1*%
%TO.N,Net-(A1-Pad13)*%
X187452000Y-89408000D03*
%TD*%
%TO.P,R1,1*%
%TO.N,Net-(A1-Pad14)*%
X189992000Y-86360000D03*
D10*
%TO.P,R1,2*%
%TO.N,+5V*%
X164592000Y-86360000D03*
%TD*%
D12*
%TO.P,SensorFlujo1,1,Pin_1*%
%TO.N,unconnected-(SensorFlujo1-Pad1)*%
X190500000Y-97536000D03*
D13*
%TO.P,SensorFlujo1,2,Pin_2*%
%TO.N,Net-(A1-Pad13)*%
X190500000Y-100076000D03*
%TO.P,SensorFlujo1,3,Pin_3*%
%TO.N,VCOM*%
X190500000Y-102616000D03*
%TO.P,SensorFlujo1,4,Pin_4*%
%TO.N,Net-(A1-Pad14)*%
X190500000Y-105156000D03*
%TO.P,SensorFlujo1,5,Pin_5*%
%TO.N,+5V*%
X190500000Y-107696000D03*
%TO.P,SensorFlujo1,6,Pin_6*%
%TO.N,unconnected-(SensorFlujo1-Pad6)*%
X190500000Y-110236000D03*
%TD*%
D14*
%TO.P,MotorStepper1,1,Pin_1*%
%TO.N,Net-(A2-Pad3)*%
X177292000Y-105156000D03*
D15*
%TO.P,MotorStepper1,2,Pin_2*%
%TO.N,Net-(A2-Pad4)*%
X174792000Y-105156000D03*
%TO.P,MotorStepper1,3,Pin_3*%
%TO.N,Net-(A2-Pad5)*%
X172292000Y-105156000D03*
%TO.P,MotorStepper1,4,Pin_4*%
%TO.N,Net-(A2-Pad6)*%
X169792000Y-105156000D03*
%TD*%
D13*
%TO.P,SensorPresion1,3,Pin_3*%
%TO.N,+5V*%
X183388000Y-98044000D03*
%TO.P,SensorPresion1,2,Pin_2*%
%TO.N,VCOM*%
X183388000Y-95504000D03*
D12*
%TO.P,SensorPresion1,1,Pin_1*%
%TO.N,Net-(A1-Pad10)*%
X183388000Y-92964000D03*
%TD*%
%TO.P,SensorPresion2,1,Pin_1*%
%TO.N,Net-(A1-Pad9)*%
X174005000Y-92964000D03*
D13*
%TO.P,SensorPresion2,2,Pin_2*%
%TO.N,unconnected-(SensorPresion2-Pad2)*%
X174005000Y-95504000D03*
%TO.P,SensorPresion2,3,Pin_3*%
%TO.N,+5V*%
X174005000Y-98044000D03*
%TD*%
D10*
%TO.P,A2,16,DIR*%
%TO.N,Net-(A1-Pad18)*%
X182626000Y-123708000D03*
%TO.P,A2,15,STEP*%
%TO.N,Net-(A1-Pad19)*%
X180086000Y-123708000D03*
%TO.P,A2,14,~{SLEEP}*%
%TO.N,Net-(A1-Pad20)*%
X177546000Y-123708000D03*
%TO.P,A2,13,~{RESET}*%
%TO.N,Net-(A1-Pad21)*%
X175006000Y-123708000D03*
%TO.P,A2,12,MS3*%
%TO.N,unconnected-(A2-Pad12)*%
X172466000Y-123708000D03*
%TO.P,A2,11,MS2*%
%TO.N,unconnected-(A2-Pad11)*%
X169926000Y-123708000D03*
%TO.P,A2,10,MS1*%
%TO.N,unconnected-(A2-Pad10)*%
X167386000Y-123708000D03*
%TO.P,A2,9,~{ENABLE}*%
%TO.N,Net-(A1-Pad22)*%
X164846000Y-123708000D03*
%TO.P,A2,8,VMOT*%
%TO.N,+12V*%
X164846000Y-111008000D03*
%TO.P,A2,7,GND*%
%TO.N,VCOM*%
X167386000Y-111008000D03*
%TO.P,A2,6,2B*%
%TO.N,Net-(A2-Pad6)*%
X169926000Y-111008000D03*
%TO.P,A2,5,2A*%
%TO.N,Net-(A2-Pad5)*%
X172466000Y-111008000D03*
%TO.P,A2,4,1A*%
%TO.N,Net-(A2-Pad4)*%
X175006000Y-111008000D03*
%TO.P,A2,3,1B*%
%TO.N,Net-(A2-Pad3)*%
X177546000Y-111008000D03*
%TO.P,A2,2,VDD*%
%TO.N,+5V*%
X180086000Y-111008000D03*
D16*
%TO.P,A2,1,GND*%
%TO.N,VCOM*%
X182626000Y-111008000D03*
%TD*%
%TO.P,C1,1*%
%TO.N,+12V*%
X159883349Y-104648000D03*
D11*
%TO.P,C1,2*%
%TO.N,VCOM*%
X162383349Y-104648000D03*
%TD*%
D16*
%TO.P,A1,1,NC*%
%TO.N,unconnected-(A1-Pad1)*%
X154380000Y-83260000D03*
D10*
%TO.P,A1,2,IOREF*%
%TO.N,unconnected-(A1-Pad2)*%
X156920000Y-83260000D03*
%TO.P,A1,3,~{RESET}*%
%TO.N,unconnected-(A1-Pad3)*%
X159460000Y-83260000D03*
%TO.P,A1,4,3V3*%
%TO.N,unconnected-(A1-Pad4)*%
X162000000Y-83260000D03*
%TO.P,A1,5,+5V*%
%TO.N,+5V*%
X164540000Y-83260000D03*
%TO.P,A1,6,GND*%
%TO.N,VCOM*%
X167080000Y-83260000D03*
%TO.P,A1,7,GND*%
X169620000Y-83260000D03*
%TO.P,A1,8,VIN*%
%TO.N,+12V*%
X172160000Y-83260000D03*
%TO.P,A1,9,A0*%
%TO.N,Net-(A1-Pad9)*%
X177240000Y-83260000D03*
%TO.P,A1,10,A1*%
%TO.N,Net-(A1-Pad10)*%
X179780000Y-83260000D03*
%TO.P,A1,11,A2*%
%TO.N,unconnected-(A1-Pad11)*%
X182320000Y-83260000D03*
%TO.P,A1,12,A3*%
%TO.N,unconnected-(A1-Pad12)*%
X184860000Y-83260000D03*
%TO.P,A1,13,SDA/A4*%
%TO.N,Net-(A1-Pad13)*%
X187400000Y-83260000D03*
%TO.P,A1,14,SCL/A5*%
%TO.N,Net-(A1-Pad14)*%
X189940000Y-83260000D03*
%TO.P,A1,15,D0/RX*%
%TO.N,unconnected-(A1-Pad15)*%
X189940000Y-131520000D03*
%TO.P,A1,16,D1/TX*%
%TO.N,unconnected-(A1-Pad16)*%
X187400000Y-131520000D03*
%TO.P,A1,17,D2*%
%TO.N,unconnected-(A1-Pad17)*%
X184860000Y-131520000D03*
%TO.P,A1,18,D3*%
%TO.N,Net-(A1-Pad18)*%
X182320000Y-131520000D03*
%TO.P,A1,19,D4*%
%TO.N,Net-(A1-Pad19)*%
X179780000Y-131520000D03*
%TO.P,A1,20,D5*%
%TO.N,Net-(A1-Pad20)*%
X177240000Y-131520000D03*
%TO.P,A1,21,D6*%
%TO.N,Net-(A1-Pad21)*%
X174700000Y-131520000D03*
%TO.P,A1,22,D7*%
%TO.N,Net-(A1-Pad22)*%
X172160000Y-131520000D03*
%TO.P,A1,23,D8*%
%TO.N,unconnected-(A1-Pad23)*%
X168100000Y-131520000D03*
%TO.P,A1,24,D9*%
%TO.N,unconnected-(A1-Pad24)*%
X165560000Y-131520000D03*
%TO.P,A1,25,D10*%
%TO.N,unconnected-(A1-Pad25)*%
X163020000Y-131520000D03*
%TO.P,A1,26,D11*%
%TO.N,unconnected-(A1-Pad26)*%
X160480000Y-131520000D03*
%TO.P,A1,27,D12*%
%TO.N,unconnected-(A1-Pad27)*%
X157940000Y-131520000D03*
%TO.P,A1,28,D13*%
%TO.N,unconnected-(A1-Pad28)*%
X155400000Y-131520000D03*
%TO.P,A1,29,GND*%
%TO.N,VCOM*%
X152860000Y-131520000D03*
%TO.P,A1,30,AREF*%
%TO.N,unconnected-(A1-Pad30)*%
X150320000Y-131520000D03*
%TO.P,A1,31,SDA/A4*%
%TO.N,unconnected-(A1-Pad31)*%
X147780000Y-131520000D03*
%TO.P,A1,32,SCL/A5*%
%TO.N,unconnected-(A1-Pad32)*%
X145240000Y-131520000D03*
%TD*%
D17*
%TO.N,Net-(A2-Pad6)*%
X169792000Y-110874000D02*
X169926000Y-111008000D01*
X169792000Y-105156000D02*
X169792000Y-110874000D01*
%TO.N,Net-(A2-Pad5)*%
X172292000Y-110834000D02*
X172466000Y-111008000D01*
X172292000Y-105156000D02*
X172292000Y-110834000D01*
%TO.N,Net-(A2-Pad4)*%
X174792000Y-110794000D02*
X175006000Y-111008000D01*
X174792000Y-105156000D02*
X174792000Y-110794000D01*
%TO.N,Net-(A2-Pad3)*%
X177292000Y-110754000D02*
X177546000Y-111008000D01*
X177292000Y-105156000D02*
X177292000Y-110754000D01*
%TO.N,Net-(A1-Pad13)*%
X187400000Y-97484000D02*
X187400000Y-83260000D01*
X189992000Y-100076000D02*
X187400000Y-97484000D01*
X190500000Y-100076000D02*
X189992000Y-100076000D01*
%TO.N,Net-(A1-Pad10)*%
X179780000Y-89460000D02*
X179780000Y-82991000D01*
X183388000Y-92964000D02*
X183284000Y-92964000D01*
X183284000Y-92964000D02*
X179780000Y-89460000D01*
%TO.N,Net-(A1-Pad9)*%
X177240000Y-89729000D02*
X174005000Y-92964000D01*
X177240000Y-82991000D02*
X177240000Y-89729000D01*
%TO.N,Net-(A1-Pad22)*%
X164846000Y-125222000D02*
X164846000Y-123708000D01*
X171196000Y-131572000D02*
X164846000Y-125222000D01*
X171248000Y-131520000D02*
X171196000Y-131572000D01*
X172160000Y-131520000D02*
X171248000Y-131520000D01*
%TO.N,Net-(A1-Pad14)*%
X189940000Y-89864000D02*
X189940000Y-83260000D01*
X192532000Y-105156000D02*
X193548000Y-104140000D01*
X193548000Y-104140000D02*
X193548000Y-93472000D01*
X190500000Y-105156000D02*
X192532000Y-105156000D01*
X193548000Y-93472000D02*
X189940000Y-89864000D01*
%TO.N,+12V*%
X172160000Y-83260000D02*
X172160000Y-81736000D01*
X172160000Y-81736000D02*
X171704000Y-81280000D01*
X171704000Y-81280000D02*
X152908000Y-81280000D01*
X152908000Y-81280000D02*
X152400000Y-81788000D01*
X152400000Y-81788000D02*
X152400000Y-89408000D01*
X152400000Y-89408000D02*
X159883349Y-96891349D01*
X159883349Y-96891349D02*
X159883349Y-104648000D01*
%TO.N,VCOM*%
X185420000Y-96520000D02*
X185420000Y-97028000D01*
X184404000Y-95504000D02*
X185420000Y-96520000D01*
X183388000Y-95504000D02*
X184404000Y-95504000D01*
X183388000Y-95504000D02*
X174005000Y-95504000D01*
X172720000Y-95504000D02*
X169620000Y-92404000D01*
X169620000Y-92404000D02*
X169620000Y-83260000D01*
X174005000Y-95504000D02*
X172720000Y-95504000D01*
%TO.N,Net-(A1-Pad9)*%
X174005000Y-92964000D02*
X175555000Y-91414000D01*
%TO.N,VCOM*%
X185420000Y-99568000D02*
X185420000Y-97028000D01*
X188468000Y-102616000D02*
X185420000Y-99568000D01*
X190500000Y-102616000D02*
X188468000Y-102616000D01*
%TO.N,+12V*%
X160010000Y-104774651D02*
X159883349Y-104648000D01*
X160010000Y-106172000D02*
X160010000Y-104774651D01*
X164846000Y-111008000D02*
X160010000Y-106172000D01*
%TO.N,VCOM*%
X167132000Y-109220000D02*
X166955349Y-109220000D01*
X167386000Y-109474000D02*
X167132000Y-109220000D01*
X167386000Y-111008000D02*
X167386000Y-109474000D01*
X166955349Y-109220000D02*
X162383349Y-104648000D01*
%TO.N,+5V*%
X171196000Y-98044000D02*
X164540000Y-91388000D01*
X174005000Y-98044000D02*
X171196000Y-98044000D01*
X164540000Y-91388000D02*
X164540000Y-82991000D01*
X174005000Y-98044000D02*
X183388000Y-98044000D01*
X180086000Y-100838000D02*
X180086000Y-106426000D01*
X182880000Y-98044000D02*
X180086000Y-100838000D01*
X183388000Y-98044000D02*
X182880000Y-98044000D01*
%TO.N,VCOM*%
X167386000Y-114046000D02*
X179578000Y-114046000D01*
X179578000Y-114046000D02*
X180594000Y-114046000D01*
%TO.N,+5V*%
X181356000Y-107696000D02*
X180086000Y-108966000D01*
X180086000Y-108966000D02*
X180086000Y-111008000D01*
X180086000Y-107442000D02*
X180086000Y-108966000D01*
X181356000Y-107696000D02*
X180086000Y-106426000D01*
X180086000Y-106426000D02*
X180086000Y-107442000D01*
X181356000Y-107696000D02*
X180340000Y-107696000D01*
X190500000Y-107696000D02*
X181356000Y-107696000D01*
X180340000Y-107696000D02*
X180086000Y-107442000D01*
%TO.N,VCOM*%
X182626000Y-111008000D02*
X182626000Y-110998000D01*
X182626000Y-112014000D02*
X182626000Y-111008000D01*
X180594000Y-114046000D02*
X182626000Y-112014000D01*
X152860000Y-128572000D02*
X152860000Y-131520000D01*
X167386000Y-114046000D02*
X152860000Y-128572000D01*
X167386000Y-111008000D02*
X167386000Y-114046000D01*
%TO.N,Net-(A1-Pad18)*%
X182626000Y-131214000D02*
X182320000Y-131520000D01*
X182626000Y-123708000D02*
X182626000Y-131214000D01*
%TO.N,Net-(A1-Pad19)*%
X180086000Y-123708000D02*
X180086000Y-131214000D01*
X180086000Y-131214000D02*
X179780000Y-131520000D01*
%TO.N,Net-(A1-Pad20)*%
X177546000Y-131214000D02*
X177240000Y-131520000D01*
X177546000Y-123708000D02*
X177546000Y-131214000D01*
%TO.N,Net-(A1-Pad21)*%
X175006000Y-131214000D02*
X174700000Y-131520000D01*
X175006000Y-123708000D02*
X175006000Y-131214000D01*
%TO.N,VCOM*%
X169620000Y-83260000D02*
X167080000Y-83260000D01*
%TD*%
M02*
